<?xml version="1.0" encoding="UTF-8"?><svg id="Capa_1" xmlns="http://www.w3.org/2000/svg" viewBox="0 0 494.05 134.4"><defs><style>.cls-1{letter-spacing:-.03em;}.cls-2{letter-spacing:0em;}.cls-3{letter-spacing:0em;}.cls-4{stroke:#6bc9ef;stroke-width:.8px;}.cls-4,.cls-5{fill:none;stroke-linecap:round;}.cls-6{fill:#213f53;}.cls-7{letter-spacing:0em;}.cls-8{letter-spacing:0em;}.cls-9{fill:#e5175d;}.cls-10{fill:#e94963;}.cls-5{stroke:#f296a6;stroke-width:.6px;}.cls-11{letter-spacing:-.02em;}.cls-12{letter-spacing:-.02em;}.cls-13{fill:#fdc749;}.cls-14{letter-spacing:0em;}.cls-15{fill:#fff;font-family:TGSPerfectCondensed, 'TGS Perfect';font-size:128px;}</style></defs><text class="cls-15" transform="translate(114.31 108.8) scale(.78 1)"><tspan class="cls-14" x="0" y="0">P</tspan><tspan class="cls-3" x="53.89" y="0">O</tspan><tspan class="cls-12" x="104.58" y="0">L</tspan><tspan class="cls-7" x="151.42" y="0">I </tspan><tspan class="cls-1" x="194.81" y="0">P</tspan><tspan class="cls-11" x="245.5" y="0">A</tspan><tspan class="cls-2" x="292.48" y="0">T</tspan><tspan class="cls-14" x="334.21" y="0">R</tspan><tspan class="cls-8" x="387.45" y="0">O</tspan><tspan x="438.14" y="0">L</tspan></text><rect class="cls-6" x="16.98" y="97.19" width="77.37" height="11.61" rx="3.87" ry="3.87"/><path class="cls-13" d="M24.72,93.33c0-2.14,1.73-3.87,3.87-3.87h54.16c2.14,0,3.87,1.73,3.87,3.87v3.87H24.72v-3.87Z"/><path class="cls-10" d="M82.74,66.25c0-14.96-12.12-27.08-27.08-27.08h0c-14.96,0-27.08,12.12-27.08,27.08v23.21h54.16v-23.21Z"/><path class="cls-9" d="M47.93,66.25c0-4.27,3.46-7.74,7.74-7.74h0c4.27,0,7.74,3.46,7.74,7.74v23.21h-15.47v-23.21Z"/><path class="cls-4" d="M55.66,28.12v-11.05"/><path class="cls-4" d="M77.77,32.16l5.53-9.57"/><path class="cls-4" d="M33.56,34.04l-5.53-9.57"/><path class="cls-4" d="M93.95,50.22l9.57-5.53"/><path class="cls-4" d="M17.38,50.22l-9.57-5.53"/><path class="cls-4" d="M99.87,72.33h11.05"/><path class="cls-4" d="M11.45,72.33H.4"/><path class="cls-5" d="M33.56,72.33c0-11.05,2.76-27.63,22.11-27.63"/></svg>